<?xml version="1.0" encoding="UTF-8" standalone="no"?>
<!DOCTYPE svg PUBLIC "-//W3C//DTD SVG 1.1//EN" "http://www.w3.org/Graphics/SVG/1.1/DTD/svg11.dtd">
<svg width="100%" height="100%" viewBox="0 0 2048 2048" version="1.1" xmlns="http://www.w3.org/2000/svg" xmlns:xlink="http://www.w3.org/1999/xlink" xml:space="preserve" xmlns:serif="http://www.serif.com/" style="fill-rule:evenodd;clip-rule:evenodd;stroke-linejoin:round;stroke-miterlimit:2;">
    <rect id="Artboard1" x="0" y="0" width="2048" height="2048" style="fill:none;"/>
    <clipPath id="_clip1">
        <rect id="Artboard11" serif:id="Artboard1" x="0" y="0" width="2048" height="2048"/>
    </clipPath>
    <g clip-path="url(#_clip1)">
        <g transform="matrix(1.47124,0,0,1.47124,-1277.07,418.48)">
            <g transform="matrix(2048,0,0,2048,965,1057)">
                <path d="M0.09,-0.056C0.1,-0.064 0.126,-0.068 0.139,-0.068C0.175,-0.068 0.283,-0.036 0.319,-0.021C0.332,-0.016 0.383,0.009 0.393,0.009C0.397,0.009 0.401,0.008 0.405,0.005C0.489,-0.054 0.578,-0.156 0.578,-0.264C0.578,-0.336 0.532,-0.414 0.463,-0.44C0.462,-0.44 0.46,-0.441 0.459,-0.441C0.456,-0.441 0.456,-0.439 0.455,-0.437C0.44,-0.408 0.388,-0.348 0.353,-0.348C0.342,-0.348 0.31,-0.428 0.307,-0.442L0.303,-0.445L0.292,-0.445L0.289,-0.443L0.247,-0.348C0.243,-0.344 0.238,-0.342 0.232,-0.342C0.148,-0.342 0.097,-0.418 0.097,-0.496C0.097,-0.508 0.108,-0.561 0.123,-0.561C0.134,-0.561 0.17,-0.548 0.182,-0.544C0.238,-0.524 0.298,-0.513 0.357,-0.513C0.42,-0.513 0.546,-0.526 0.546,-0.611C0.546,-0.636 0.529,-0.646 0.506,-0.646C0.481,-0.646 0.461,-0.634 0.461,-0.607C0.461,-0.599 0.467,-0.589 0.471,-0.582C0.471,-0.571 0.466,-0.571 0.455,-0.571C0.36,-0.571 0.299,-0.614 0.219,-0.653L0.214,-0.655C0.212,-0.654 0.21,-0.654 0.208,-0.653C0.115,-0.608 0.021,-0.505 0.021,-0.397C0.021,-0.337 0.06,-0.256 0.118,-0.233L0.122,-0.232L0.127,-0.236L0.128,-0.236C0.149,-0.284 0.183,-0.319 0.238,-0.323L0.244,-0.32C0.252,-0.302 0.288,-0.221 0.299,-0.214C0.307,-0.22 0.344,-0.33 0.366,-0.33C0.435,-0.33 0.495,-0.238 0.495,-0.175C0.495,-0.16 0.484,-0.081 0.466,-0.081C0.465,-0.081 0.46,-0.083 0.459,-0.083C0.411,-0.1 0.368,-0.118 0.318,-0.127C0.28,-0.134 0.242,-0.137 0.203,-0.137C0.144,-0.137 0.082,-0.121 0.045,-0.072C0.037,-0.062 0.031,-0.05 0.031,-0.037C0.031,-0.012 0.06,0.015 0.084,0.015C0.103,0.015 0.122,0.003 0.122,-0.018C0.122,-0.044 0.091,-0.048 0.09,-0.056Z" style="fill:rgb(6,24,34);fill-rule:nonzero;"/>
            </g>
        </g>
        <g transform="matrix(1.47124,0,0,1.47124,-1319.28,447.7)">
            <g transform="matrix(2048,0,0,2048,965,1057)">
                <path d="M0.09,-0.056C0.1,-0.064 0.126,-0.068 0.139,-0.068C0.175,-0.068 0.283,-0.036 0.319,-0.021C0.332,-0.016 0.383,0.009 0.393,0.009C0.397,0.009 0.401,0.008 0.405,0.005C0.489,-0.054 0.578,-0.156 0.578,-0.264C0.578,-0.336 0.532,-0.414 0.463,-0.44C0.462,-0.44 0.46,-0.441 0.459,-0.441C0.456,-0.441 0.456,-0.439 0.455,-0.437C0.44,-0.408 0.388,-0.348 0.353,-0.348C0.342,-0.348 0.31,-0.428 0.307,-0.442L0.303,-0.445L0.292,-0.445L0.289,-0.443L0.247,-0.348C0.243,-0.344 0.238,-0.342 0.232,-0.342C0.148,-0.342 0.097,-0.418 0.097,-0.496C0.097,-0.508 0.108,-0.561 0.123,-0.561C0.134,-0.561 0.17,-0.548 0.182,-0.544C0.238,-0.524 0.298,-0.513 0.357,-0.513C0.42,-0.513 0.546,-0.526 0.546,-0.611C0.546,-0.636 0.529,-0.646 0.506,-0.646C0.481,-0.646 0.461,-0.634 0.461,-0.607C0.461,-0.599 0.467,-0.589 0.471,-0.582C0.471,-0.571 0.466,-0.571 0.455,-0.571C0.36,-0.571 0.299,-0.614 0.219,-0.653L0.214,-0.655C0.212,-0.654 0.21,-0.654 0.208,-0.653C0.115,-0.608 0.021,-0.505 0.021,-0.397C0.021,-0.337 0.06,-0.256 0.118,-0.233L0.122,-0.232L0.127,-0.236L0.128,-0.236C0.149,-0.284 0.183,-0.319 0.238,-0.323L0.244,-0.32C0.252,-0.302 0.288,-0.221 0.299,-0.214C0.307,-0.22 0.344,-0.33 0.366,-0.33C0.435,-0.33 0.495,-0.238 0.495,-0.175C0.495,-0.16 0.484,-0.081 0.466,-0.081C0.465,-0.081 0.46,-0.083 0.459,-0.083C0.411,-0.1 0.368,-0.118 0.318,-0.127C0.28,-0.134 0.242,-0.137 0.203,-0.137C0.144,-0.137 0.082,-0.121 0.045,-0.072C0.037,-0.062 0.031,-0.05 0.031,-0.037C0.031,-0.012 0.06,0.015 0.084,0.015C0.103,0.015 0.122,0.003 0.122,-0.018C0.122,-0.044 0.091,-0.048 0.09,-0.056Z" style="fill:#cf623c;fill-rule:nonzero;"/>
            </g>
        </g>
    </g>
</svg>
